<svg width="14" height="14" viewBox="0 0 14 14" fill="none" xmlns="http://www.w3.org/2000/svg">
<path d="M10.7706 11.4379C8.68779 13.5207 5.31091 13.5207 3.22811 11.4379C2.18672 10.3965 1.66602 9.03158 1.66602 7.66667C1.66601 6.30174 2.18671 4.93682 3.22811 3.89542C3.22811 3.89542 3.66605 4.99997 4.99938 5.66664C4.99938 4.3333 5.33271 2.3333 6.98994 1C8.33268 2.33333 9.72679 2.85163 10.7706 3.89542C11.812 4.93682 12.3327 6.30175 12.3327 7.66667C12.3327 9.03158 11.812 10.3965 10.7706 11.4379Z" stroke="#602FF2" stroke-width="1.5" stroke-linecap="round" stroke-linejoin="round"/>
<path d="M5.58514 9.74752C6.36618 10.5286 7.63251 10.5286 8.41356 9.74752C8.80408 9.357 8.99934 8.84516 8.99935 8.33333C8.99936 7.82147 8.80409 7.30962 8.41356 6.91909C8.02551 6.53103 7.51766 6.33578 7.00906 6.33333L6.33265 8.33329L4.99935 8.33333C4.99935 8.84516 5.19462 9.357 5.58514 9.74752Z" stroke="#602FF2" stroke-width="1.5" stroke-linecap="round" stroke-linejoin="round"/>
</svg>
