<svg width="14" height="14" viewBox="0 0 14 14" fill="none" xmlns="http://www.w3.org/2000/svg">
<path fill-rule="evenodd" clip-rule="evenodd" d="M10.995 10.995C10.7216 11.2683 10.2784 11.2683 10.005 10.995L6.50503 7.49497C6.23166 7.22161 6.23166 6.77839 6.50503 6.50502L10.005 3.00503C10.2784 2.73166 10.7216 2.73166 10.995 3.00503C11.2683 3.27839 11.2683 3.72161 10.995 3.99497L7.98995 7L10.995 10.005C11.2683 10.2784 11.2683 10.7216 10.995 10.995ZM6.79498 10.995C6.52161 11.2683 6.0784 11.2683 5.80503 10.995L2.30503 7.49497C2.03166 7.22161 2.03166 6.77839 2.30503 6.50502L5.80503 3.00502C6.0784 2.73166 6.52161 2.73166 6.79498 3.00502C7.06835 3.27839 7.06835 3.72161 6.79498 3.99497L3.78996 7L6.79498 10.005C7.06835 10.2784 7.06835 10.7216 6.79498 10.995Z" fill="#101010"/>
</svg>
